<?xml version="1.0" encoding="utf-8" ?>
<svg xmlns="http://www.w3.org/2000/svg" xmlns:xlink="http://www.w3.org/1999/xlink" width="1629" height="1363">
	<g>
		<path fill="#5E0C9C" transform="scale(2.98352 2.98249)" d="M120.685 61.1905C135.258 61.2945 149.987 60.5937 164.538 61.1855C168.138 61.3319 171.729 61.6563 175.33 61.8112C179.941 62.0096 184.596 62.0533 189.196 62.4173C196.437 62.9903 203.711 64.0334 210.975 64.2008C220.006 64.4091 229.081 64.2381 238.116 64.2395L289.968 64.2304L368.713 64.0426C378.317 63.9283 387.863 63.2906 397.473 63.2143C400.454 63.1906 403.532 63.0222 406.501 63.2299C413.15 63.6948 436.202 78.6672 441.994 83.1957C444.141 84.8735 446.223 86.8252 447.985 88.9039C448.852 89.9263 449.664 90.9835 450.007 92.3054C451.466 97.9334 450.775 104.666 450.933 110.468C451.047 114.615 451.432 118.747 451.56 122.892C452.009 137.464 451.193 152.03 451.26 166.6C451.287 172.616 451.599 178.628 451.619 184.645Q451.556 243.26 452.303 301.868C452.51 312.014 453.238 322.085 453.71 332.21L455.112 367.276C455.518 375.832 455.87 384.344 455.994 392.91C456.053 396.933 456.27 401.004 455.93 405.017Q445.87 405.077 435.811 404.868C423.682 404.485 411.519 404.818 399.383 404.665C392.417 404.578 385.463 404.158 378.493 404.067Q338.749 403.715 299.004 403.889C286.624 403.958 274.285 404.562 261.913 404.679L152.955 404.745C150.541 404.746 148.075 404.716 145.802 403.817C135.677 399.812 125.906 391.239 117.066 384.885C113.478 382.306 109.147 379.946 106.035 376.842C104.838 369.666 104.442 362.26 103.783 355.016C102.96 345.979 101.883 336.994 101.396 327.925C100.936 319.359 101 310.745 100.733 302.17Q98.8504 221.442 102.395 140.77C102.75 132.949 103.441 125.123 103.864 117.302Q105.05 97.2471 105.263 77.1583C105.35 72.0512 106.224 66.7226 105.83 61.6655C110.774 61.7058 115.74 61.3257 120.685 61.1905ZM161.095 104.06C159.629 115.51 159.243 126.987 158.646 138.504C158.295 145.265 157.533 152.016 157.173 158.786C156.828 165.272 156.886 171.768 156.637 178.256Q153.569 252.365 155.658 326.507C155.966 337.262 156.141 347.98 156.588 358.735C156.989 368.412 157.424 377.862 159.621 387.359C167.338 386.847 175.005 388.815 182.705 388.997C202.781 389.473 222.881 389.267 242.961 389.508C247.21 389.559 251.447 389.885 255.695 389.963Q318.376 390.737 381.049 389.522C396.818 389.297 412.596 389.425 428.362 389.09L437.717 388.996C437.595 383.11 437.86 377.213 437.955 371.327Q438.086 359.453 438.044 347.579L437.192 220.076L436.423 141.102L436.372 120.894C436.353 116.925 436.092 112.779 436.473 108.832C423.007 109.417 409.522 107.896 396.078 107.279C382.77 106.668 369.481 106.815 356.169 106.585C350.977 106.494 345.808 106.003 340.615 105.91L204.006 103.828C190.868 103.641 177.685 104.216 164.559 103.842L161.095 104.06ZM143.488 379.627C142.956 372.373 141.854 365.141 141.414 357.898C141.034 351.642 141.061 345.318 140.945 339.051Q140.601 326.997 140.395 314.94Q139.494 251.245 141.412 187.573C141.73 179.028 142.58 170.482 143.005 161.939C143.573 150.537 143.763 139.101 144.37 127.703C144.895 117.854 145.601 107.918 145.647 98.0532C142.106 95.9067 138.326 94.1481 134.734 92.0735C129.971 89.3224 125.376 86.2751 120.59 83.5687C120.342 92.4162 119.306 101.295 118.698 110.125Q116.887 134.928 116.053 159.782C115.636 171.808 115.819 183.913 115.684 195.95Q114.764 244.407 115.697 292.863C115.875 306.583 115.964 320.232 116.672 333.936C117.111 342.447 117.313 351.125 119.607 359.397C120.877 363.974 124.338 368.214 127.581 371.62C130.427 374.61 134.788 378.122 138.893 379.053C140.395 379.394 141.975 379.333 143.488 379.627ZM421.442 90.6276L422.137 90.5893C422.062 90.1112 422.183 90.252 421.881 90.0335C417.064 86.5469 404.868 82.9098 398.798 82.1598C395.963 81.8095 393.01 81.9263 390.156 81.9215C384.594 81.9121 379.002 82.0245 373.445 81.8392L296.181 79.6663L191.64 77.713C187.139 77.6442 182.659 77.1851 178.161 77.0729C169.473 76.856 160.751 77.0051 152.059 76.9799C148.373 76.9692 144.583 76.6582 140.915 76.827C143.501 78.5794 146.544 79.8905 149.275 81.4248C152.348 83.1508 155.908 86.2968 159.307 87.0623C162.678 87.8215 168.471 87.2924 172.047 87.2819C182.93 87.2498 193.902 86.9404 204.78 87.256C209.432 87.3909 214.183 88.2082 218.82 88.6924C222.709 89.0985 226.579 89.1699 230.472 89.4457C233.265 89.6434 236.035 89.9976 238.836 90.1106C255.42 90.7795 271.949 90.7161 288.543 90.7127L326.411 90.8023C346.636 90.7701 366.889 91.0393 387.108 90.809L409.232 90.5273C413.179 90.4779 417.544 90.0918 421.442 90.6276Z"/>
		<path fill="#5E0C9C" transform="scale(2.98352 2.98249)" d="M335.353 141.367C347.856 141.491 360.476 140.823 372.967 141.321C381.376 141.657 389.97 144.824 395.698 151.11C404.715 161.007 403.955 172.466 403.972 184.9C403.979 190.569 404.131 196.289 403.868 201.95C403.372 212.648 399.568 226.096 389.854 232.022C386.903 233.822 382.599 234.812 380.106 237.081C380.155 237.667 380.167 238.03 380.725 238.353C381.841 238.999 383.319 239.321 384.514 239.87C389.013 241.939 392.776 244.297 396.119 248.004C400.027 252.335 402.132 257.3 403.266 263.002C404.699 270.217 403.949 282.504 403.957 290.239C403.97 301.435 404.41 312.81 403.888 323.984L389.683 323.991C386.58 323.99 383.368 323.79 380.298 324.242C380.113 314.671 380.332 305.065 380.363 295.49L380.34 274.941C380.318 270.139 380.803 264.399 379.563 259.753C378.971 257.536 377.517 255.316 375.898 253.711C371.782 249.626 364.228 250.134 358.935 250.106C359.335 259.501 358.96 269.075 358.952 278.49L358.991 324.019Q347.131 323.941 335.271 324.009L335.3 202.891L335.248 156.578C335.247 153.847 334.789 143.353 335.353 141.367ZM359.266 227.46L359.619 227.419C365.543 226.765 371.405 228.735 376.075 223.932C377.662 222.284 379 220.142 379.583 217.913C380.83 213.14 380.286 207.212 380.312 202.262Q380.402 192.413 380.298 182.564C380.195 177.026 379.799 171.536 375.549 167.462C371.383 163.468 364.389 165.32 359.177 164.833C358.577 174.009 358.955 183.424 358.955 192.625C358.955 204.208 358.668 215.894 359.266 227.46Z"/>
		<path fill="#5E0C9C" transform="scale(2.98352 2.98249)" d="M194.682 141.32C195.672 145.432 195.863 149.788 196.414 153.979C196.833 157.164 197.466 160.319 197.882 163.505C198.625 169.185 199.111 174.901 199.768 180.593C201.391 194.656 203.751 208.611 204.493 222.762L206.353 254.526C206.68 259.743 206.663 265.355 207.501 270.498C207.638 271.343 207.791 272.388 208.53 272.914C208.677 272.869 208.856 272.881 208.971 272.779C209.777 272.064 209.666 263.094 209.715 261.624C209.901 256.016 210.062 250.303 210.484 244.708C210.898 239.221 211.571 233.751 211.981 228.261C212.534 220.848 212.774 213.512 213.589 206.1C214.871 194.43 216.752 182.852 218.051 171.19C218.632 165.972 220.034 145.229 222.045 141.815C224.9 140.511 240.906 141.496 245.309 141.301C243.941 149.162 243.555 157.231 242.645 165.154C242.172 169.28 241.257 173.347 240.618 177.448C240.058 181.038 239.776 184.666 239.234 188.26L232.491 241.417C232.061 244.681 231.369 247.912 230.854 251.164C230.034 256.347 229.372 261.582 228.754 266.794C227.379 278.397 225.645 289.923 224.152 301.508C223.176 309.074 222.921 316.661 221.023 324.091C212.439 323.616 203.691 324.06 195.082 323.942L177.756 191.186L173.42 157.913C173.003 154.787 170.917 144.189 171.373 141.924C172.195 141.368 173.272 141.467 174.235 141.425C176.254 141.076 178.675 141.271 180.732 141.282C185.376 141.307 190.04 141.449 194.682 141.32Z"/>
		<path fill="#5E0C9C" transform="scale(2.98352 2.98249)" d="M315.563 240.898C318.182 240.837 320.806 240.836 323.426 240.807C322.69 247.404 323.124 254.321 323.185 260.952C307.682 261.328 292.021 260.318 276.552 261.269C276.681 265.29 276.29 269.31 276.175 273.328C279.49 272.842 283.032 273.117 286.383 273.13L306.978 273.177C310.584 273.179 314.422 273.434 317.994 272.986C317.763 279.085 318.313 285.246 317.752 291.326C306.976 290.955 296.134 291.206 285.348 291.225C282.426 291.23 279.468 291.482 276.554 291.381C276.383 292.439 276.255 293.489 276.195 294.56C276.067 296.803 275.732 300.914 277.418 302.643C279.259 304.531 308.49 303.892 313.206 303.878C316.094 303.927 319.722 303.006 322.474 303.75C323.873 305.444 323.186 320.881 323.076 323.96L322.273 323.966L285.83 324C280.552 324 271.429 324.629 266.552 323.518C263.797 322.891 260.906 321.333 258.912 319.326Q258.081 318.472 257.383 317.506Q256.685 316.54 256.137 315.482Q255.588 314.424 255.2 313.297Q254.812 312.17 254.593 310.999C253.683 306.145 254.275 294.835 254.272 289.448L254.26 240.898C261.697 241.176 269.207 240.964 276.653 240.961L315.563 240.898Z"/>
		<path fill="#5E0C9C" transform="scale(2.98352 2.98249)" d="M254.371 141.356Q272.05 141.241 289.73 141.323C300.915 141.315 312.12 141.133 323.301 141.388C323.114 144.001 323.502 160.692 322.881 161.49C319.267 162.461 304.26 162.108 299.761 161.888C299.905 165.593 299.736 169.32 299.713 173.028L299.726 190.01C299.716 194.287 300.202 200.276 299.783 204.289C307.543 204.062 315.325 204.488 323.082 204.21C323.344 210.775 323.451 218.073 323.128 224.615C320.063 224.966 316.746 224.754 313.649 224.737L297.7 224.683L268.711 224.695C263.886 224.708 259.055 224.896 254.232 224.773C254.465 217.972 254.219 211.117 254.334 204.308C256.834 204.488 259.423 204.321 261.936 204.3Q269.861 204.174 277.786 204.3C278.16 190.124 277.585 175.923 277.953 161.746C270.195 162.421 262.096 162.005 254.306 161.995C254.231 155.145 254.031 148.196 254.371 141.356Z"/>
	</g>
	<g/>
</svg>
